<svg width="70" height="40" viewBox="0 0 70 40" fill="none" xmlns="http://www.w3.org/2000/svg">
<g clip-path="url(#clip0_821_121)">
<path fill-rule="evenodd" clip-rule="evenodd" d="M36.6258 1.9216C37.1073 0.758122 38.238 0 39.4919 0H66.4419C68.1562 0 69.5459 1.39654 69.5459 3.11927C69.5459 4.84199 68.1562 6.23853 66.4419 6.23853H39.4919C37.2779 6.23853 35.7758 3.97595 36.6258 1.9216Z" fill="#EC5504"/>
<path d="M44.8429 7.78369C47.0364 7.78369 48.4999 10.0568 47.5998 12.0659L41.3312 26.0552H56.7589C57.9482 26.0638 58.9671 26.8959 59.4474 27.9888C60.333 30.0044 58.7697 32.3094 56.5763 32.2935H36.8488C36.0271 32.2874 35.2668 31.8583 34.717 31.2329C33.7788 30.3967 33.3821 28.9984 33.9601 27.7085L42.0871 9.57373C42.5752 8.48449 43.6538 7.78383 44.8429 7.78369Z" fill="#EC5504"/>
<path d="M59.0824 7.78369H53.4197L53.4197 14.0329C53.4197 14.0329 58.1607 13.9723 58.2207 14.0329C67.9019 14.0329 60.0474 25.8717 57.49 26.0552H56.7593L49.6354 32.2937H59.4993C66.6233 32.2937 77.9485 7.78369 59.0824 7.78369Z" fill="#EC5504"/>
<path d="M50.1317 10.903C50.1317 9.18023 51.5283 7.78369 53.251 7.78369H57.8036V14.0222H53.251C51.5283 14.0222 50.1317 12.6257 50.1317 10.903Z" fill="#EC5504"/>
<path fill-rule="evenodd" clip-rule="evenodd" d="M30.7564 30.331C30.2681 31.4205 29.1896 32.1211 28.0005 32.1211C25.807 32.1211 24.344 29.8466 25.2447 27.8367L33.3707 9.70367C33.8589 8.61417 34.9375 7.91357 36.1265 7.91357C38.3201 7.91357 39.783 10.188 38.8823 12.198L30.7564 30.331Z" fill="#EC5504"/>
<path fill-rule="evenodd" clip-rule="evenodd" d="M0.226621 27.8527C0.713037 26.7673 1.78755 26.0693 2.97212 26.0693H19.2691C21.4545 26.0693 22.912 28.3353 22.0146 30.3377C21.5282 31.4232 20.4537 32.1211 19.2691 32.1211H2.97212C0.786748 32.1211 -0.67075 29.8552 0.226621 27.8527Z" fill="#8B8B8B"/>
<path fill-rule="evenodd" clip-rule="evenodd" d="M9.06013 22.4633C8.57189 23.5528 7.49334 24.2534 6.30431 24.2534C4.11074 24.2534 2.64777 21.9789 3.5485 19.969L11.6744 1.83599C12.1627 0.746492 13.2412 0.0458984 14.4303 0.0458984C16.6238 0.0458984 18.0868 2.32035 17.1861 4.33032L9.06013 22.4633Z" fill="#8B8B8B"/>
<path d="M22.9127 -0.0839844C25.1062 -0.0838957 26.5689 2.18959 25.6686 4.19875L19.3755 18.2417L23.4482 18.3111C24.6375 18.3198 25.711 19.0279 26.1913 20.1208C27.0771 22.1364 25.598 24.3991 23.4047 24.3833L14.9314 24.2392C14.2984 24.2346 13.6992 24.0297 13.2037 23.6761C11.976 22.9156 11.372 21.3087 12.0295 19.8413L20.1562 1.70616C20.6444 0.616803 21.7235 -0.0839844 22.9127 -0.0839844Z" fill="#8B8B8B"/>
<path d="M3.14654 38.4434C3.14654 38.4793 3.14542 38.5108 3.14319 38.5377C3.14096 38.5646 3.13649 38.5882 3.12979 38.6084C3.12532 38.6286 3.11862 38.6466 3.10968 38.6623C3.10075 38.678 3.08511 38.6971 3.06277 38.7195C3.04043 38.742 2.99352 38.7768 2.92203 38.8239C2.85054 38.8688 2.76118 38.9137 2.65395 38.9586C2.54896 39.0013 2.4272 39.0372 2.2887 39.0664C2.15243 39.0978 2.00275 39.1135 1.83967 39.1135C1.55819 39.1135 1.30352 39.0664 1.07565 38.9721C0.850024 38.8778 0.656786 38.7386 0.495941 38.5545C0.337329 38.3704 0.214461 38.1437 0.127336 37.8743C0.0424454 37.6027 0 37.2906 0 36.9382C0 36.5767 0.0457963 36.2546 0.137389 35.9717C0.231216 35.6888 0.361903 35.4497 0.52945 35.2544C0.696998 35.0569 0.896937 34.9065 1.12927 34.8032C1.36384 34.6999 1.62298 34.6483 1.90669 34.6483C2.03179 34.6483 2.15354 34.6606 2.27194 34.6853C2.39034 34.7078 2.49981 34.737 2.60034 34.7729C2.70087 34.8088 2.79022 34.8503 2.86841 34.8975C2.9466 34.9446 3.00022 34.9839 3.02926 35.0153C3.06053 35.0445 3.08064 35.067 3.08958 35.0827C3.09851 35.0984 3.10521 35.1175 3.10968 35.1399C3.11638 35.1601 3.12085 35.1848 3.12309 35.214C3.12755 35.2432 3.12979 35.278 3.12979 35.3184C3.12979 35.3633 3.12755 35.4015 3.12309 35.4329C3.11862 35.4643 3.11192 35.4913 3.10298 35.5137C3.09404 35.5339 3.08287 35.5496 3.06947 35.5609C3.0583 35.5698 3.04378 35.5743 3.02591 35.5743C2.99463 35.5743 2.95107 35.553 2.89522 35.5104C2.83937 35.4655 2.76677 35.4172 2.67741 35.3656C2.59028 35.3117 2.48305 35.2634 2.35572 35.2208C2.23062 35.1759 2.07982 35.1534 1.90334 35.1534C1.71122 35.1534 1.53585 35.1927 1.37724 35.2713C1.22086 35.3476 1.08682 35.461 0.975126 35.6114C0.863428 35.7618 0.776303 35.9459 0.713752 36.1636C0.653435 36.3792 0.623277 36.6261 0.623277 36.9045C0.623277 37.1806 0.652318 37.4253 0.710401 37.6386C0.770718 37.8496 0.855609 38.027 0.965073 38.1706C1.07677 38.3121 1.21304 38.4198 1.37389 38.4939C1.53473 38.5658 1.7168 38.6017 1.92009 38.6017C2.09211 38.6017 2.24179 38.5804 2.36912 38.5377C2.49869 38.495 2.60816 38.4479 2.69751 38.3963C2.78911 38.3424 2.86395 38.2941 2.92203 38.2515C2.98011 38.2088 3.02591 38.1875 3.05942 38.1875C3.07505 38.1875 3.08846 38.1909 3.09963 38.1976C3.1108 38.2043 3.11973 38.2178 3.12644 38.238C3.13314 38.256 3.13761 38.2818 3.13984 38.3154C3.14431 38.3491 3.14654 38.3918 3.14654 38.4434Z" fill="#8B8B8B"/>
<path d="M9.14782 38.8542C9.1657 38.9036 9.17463 38.944 9.17463 38.9755C9.17687 39.0047 9.16905 39.0271 9.15117 39.0428C9.1333 39.0585 9.10314 39.0686 9.0607 39.0731C9.02049 39.0776 8.96576 39.0799 8.8965 39.0799C8.82725 39.0799 8.7714 39.0776 8.72896 39.0731C8.68874 39.0709 8.65747 39.0664 8.63513 39.0597C8.61502 39.0507 8.59939 39.0394 8.58822 39.026C8.57928 39.0125 8.57034 38.9957 8.56141 38.9755L8.18945 37.9147H6.38664L6.03144 38.962C6.02474 38.9822 6.0158 39.0002 6.00463 39.0159C5.99346 39.0293 5.97671 39.0417 5.95437 39.0529C5.93426 39.0619 5.9041 39.0686 5.86389 39.0731C5.82592 39.0776 5.77565 39.0799 5.7131 39.0799C5.64832 39.0799 5.5947 39.0765 5.55226 39.0698C5.51204 39.0653 5.483 39.0552 5.46513 39.0394C5.44949 39.0237 5.44167 39.0013 5.44167 38.9721C5.44391 38.9407 5.45396 38.9003 5.47183 38.8509L6.92614 34.8032C6.93508 34.7785 6.94625 34.7583 6.95965 34.7426C6.97529 34.7269 6.99651 34.7145 7.02332 34.7055C7.05236 34.6966 7.08811 34.6909 7.13055 34.6887C7.17523 34.6842 7.23108 34.682 7.2981 34.682C7.36959 34.682 7.42879 34.6842 7.4757 34.6887C7.52261 34.6909 7.56059 34.6966 7.58963 34.7055C7.61867 34.7145 7.64101 34.728 7.65665 34.7459C7.67229 34.7617 7.68458 34.7819 7.69351 34.8066L9.14782 38.8542ZM7.28134 35.2814H7.27799L6.53073 37.4534H8.03866L7.28134 35.2814Z" fill="#8B8B8B"/>
<path d="M14.757 38.9721C14.757 38.9901 14.7537 39.0058 14.747 39.0192C14.7403 39.0327 14.7258 39.0439 14.7034 39.0529C14.6811 39.0619 14.6498 39.0686 14.6096 39.0731C14.5694 39.0776 14.5158 39.0799 14.4488 39.0799C14.3907 39.0799 14.3426 39.0776 14.3047 39.0731C14.2689 39.0686 14.2399 39.0619 14.2175 39.0529C14.1952 39.0417 14.1773 39.0271 14.1639 39.0091C14.1528 38.9912 14.1427 38.9687 14.1338 38.9418L13.735 37.9147C13.6881 37.798 13.6389 37.6913 13.5876 37.5948C13.5384 37.496 13.4792 37.4118 13.41 37.3423C13.3407 37.2704 13.2592 37.2154 13.1653 37.1772C13.0715 37.1368 12.9587 37.1166 12.8269 37.1166H12.4415V38.9721C12.4415 38.9901 12.436 39.0058 12.4248 39.0192C12.4158 39.0327 12.4002 39.0439 12.3779 39.0529C12.3578 39.0597 12.3287 39.0653 12.2907 39.0698C12.255 39.0765 12.2092 39.0799 12.1534 39.0799C12.0975 39.0799 12.0506 39.0765 12.0126 39.0698C11.9769 39.0653 11.9478 39.0597 11.9255 39.0529C11.9032 39.0439 11.8875 39.0327 11.8786 39.0192C11.8696 39.0058 11.8652 38.9901 11.8652 38.9721V34.9379C11.8652 34.8503 11.8875 34.7897 11.9322 34.756C11.9791 34.7201 12.0283 34.7022 12.0796 34.7022H13.0011C13.1106 34.7022 13.2011 34.7055 13.2726 34.7123C13.3463 34.7168 13.4122 34.7224 13.4703 34.7291C13.6378 34.7583 13.7853 34.8043 13.9126 34.8672C14.0422 34.93 14.1505 35.0097 14.2376 35.1063C14.3248 35.2028 14.3896 35.3139 14.432 35.4396C14.4767 35.5631 14.499 35.7001 14.499 35.8505C14.499 35.9964 14.4789 36.1277 14.4387 36.2445C14.4007 36.359 14.3449 36.4611 14.2712 36.5509C14.1974 36.6385 14.1092 36.7148 14.0064 36.7799C13.9037 36.845 13.7886 36.9 13.6613 36.9449C13.7328 36.9763 13.7976 37.0167 13.8556 37.0661C13.9137 37.1133 13.9673 37.1705 14.0165 37.2379C14.0679 37.3052 14.1159 37.3827 14.1606 37.4702C14.2053 37.5578 14.2499 37.6565 14.2946 37.7666L14.6833 38.7263C14.7146 38.8071 14.7347 38.8643 14.7436 38.898C14.7526 38.9294 14.757 38.9541 14.757 38.9721ZM13.8891 35.9111C13.8891 35.7405 13.8512 35.5968 13.7752 35.48C13.6993 35.3611 13.5719 35.2758 13.3932 35.2241C13.3374 35.2084 13.2737 35.1972 13.2022 35.1904C13.133 35.1837 13.0414 35.1803 12.9274 35.1803H12.4415V36.6486H13.0045C13.1564 36.6486 13.2871 36.6306 13.3966 36.5947C13.5083 36.5565 13.601 36.5049 13.6747 36.4398C13.7484 36.3724 13.802 36.2938 13.8355 36.2041C13.8713 36.1143 13.8891 36.0166 13.8891 35.9111Z" fill="#8B8B8B"/>
<path d="M18.865 37.3658V38.9721C18.865 38.9901 18.8606 39.0058 18.8516 39.0192C18.8427 39.0327 18.8271 39.0439 18.8047 39.0529C18.7824 39.0597 18.7522 39.0653 18.7142 39.0698C18.6763 39.0765 18.6305 39.0799 18.5769 39.0799C18.521 39.0799 18.4741 39.0765 18.4361 39.0698C18.4004 39.0653 18.3702 39.0597 18.3456 39.0529C18.3233 39.0439 18.3077 39.0327 18.2987 39.0192C18.2898 39.0058 18.2853 38.9901 18.2853 38.9721V37.3658L17.0589 34.9076C17.0343 34.8559 17.0187 34.8155 17.012 34.7864C17.0075 34.7572 17.0131 34.7347 17.0287 34.719C17.0466 34.7033 17.0768 34.6932 17.1192 34.6887C17.1639 34.6842 17.2231 34.682 17.2968 34.682C17.3638 34.682 17.4174 34.6842 17.4576 34.6887C17.5001 34.6932 17.5336 34.6999 17.5582 34.7089C17.5827 34.7156 17.6006 34.7269 17.6118 34.7426C17.6252 34.756 17.6375 34.774 17.6486 34.7965L18.2485 36.0491C18.3043 36.1681 18.3602 36.2927 18.416 36.4229C18.4719 36.5531 18.5288 36.6845 18.5869 36.8169H18.5936C18.645 36.689 18.6975 36.5621 18.7511 36.4364C18.807 36.3084 18.8628 36.1827 18.9187 36.0593L19.5218 34.7998C19.5285 34.7774 19.5375 34.7583 19.5486 34.7426C19.562 34.7269 19.5788 34.7156 19.5989 34.7089C19.6212 34.6999 19.6514 34.6932 19.6894 34.6887C19.7274 34.6842 19.7754 34.682 19.8335 34.682C19.9139 34.682 19.9764 34.6853 20.0211 34.6921C20.068 34.6966 20.1004 34.7067 20.1183 34.7224C20.1362 34.7381 20.1418 34.7605 20.1351 34.7897C20.1306 34.8189 20.1161 34.8582 20.0915 34.9076L18.865 37.3658Z" fill="#8B8B8B"/>
<path d="M25.5533 38.8542C25.5711 38.9036 25.5801 38.944 25.5801 38.9755C25.5823 39.0047 25.5745 39.0271 25.5566 39.0428C25.5387 39.0585 25.5086 39.0686 25.4661 39.0731C25.4259 39.0776 25.3712 39.0799 25.3019 39.0799C25.2327 39.0799 25.1768 39.0776 25.1344 39.0731C25.0942 39.0709 25.0629 39.0664 25.0406 39.0597C25.0205 39.0507 25.0048 39.0394 24.9937 39.026C24.9847 39.0125 24.9758 38.9957 24.9669 38.9755L24.5949 37.9147H22.7921L22.4369 38.962C22.4302 38.9822 22.4212 39.0002 22.4101 39.0159C22.3989 39.0293 22.3822 39.0417 22.3598 39.0529C22.3397 39.0619 22.3095 39.0686 22.2693 39.0731C22.2314 39.0776 22.1811 39.0799 22.1185 39.0799C22.0538 39.0799 22.0001 39.0765 21.9577 39.0698C21.9175 39.0653 21.8884 39.0552 21.8706 39.0394C21.8549 39.0237 21.8471 39.0013 21.8471 38.9721C21.8494 38.9407 21.8594 38.9003 21.8773 38.8509L23.3316 34.8032C23.3405 34.7785 23.3517 34.7583 23.3651 34.7426C23.3807 34.7269 23.402 34.7145 23.4288 34.7055C23.4578 34.6966 23.4936 34.6909 23.536 34.6887C23.5807 34.6842 23.6365 34.682 23.7035 34.682C23.775 34.682 23.8342 34.6842 23.8811 34.6887C23.9281 34.6909 23.966 34.6966 23.9951 34.7055C24.0241 34.7145 24.0465 34.728 24.0621 34.7459C24.0777 34.7617 24.09 34.7819 24.099 34.8066L25.5533 38.8542ZM23.6868 35.2814H23.6834L22.9362 37.4534H24.4441L23.6868 35.2814Z" fill="#8B8B8B"/>
<path d="M31.1625 38.9721C31.1625 38.9901 31.1591 39.0058 31.1524 39.0192C31.1457 39.0327 31.1312 39.0439 31.1089 39.0529C31.0865 39.0619 31.0553 39.0686 31.015 39.0731C30.9748 39.0776 30.9212 39.0799 30.8542 39.0799C30.7961 39.0799 30.7481 39.0776 30.7101 39.0731C30.6744 39.0686 30.6453 39.0619 30.623 39.0529C30.6006 39.0417 30.5828 39.0271 30.5694 39.0091C30.5582 38.9912 30.5481 38.9687 30.5392 38.9418L30.1405 37.9147C30.0935 37.798 30.0444 37.6913 29.993 37.5948C29.9439 37.496 29.8847 37.4118 29.8154 37.3423C29.7462 37.2704 29.6646 37.2154 29.5708 37.1772C29.477 37.1368 29.3641 37.1166 29.2323 37.1166H28.847V38.9721C28.847 38.9901 28.8414 39.0058 28.8302 39.0192C28.8213 39.0327 28.8057 39.0439 28.7833 39.0529C28.7632 39.0597 28.7342 39.0653 28.6962 39.0698C28.6604 39.0765 28.6147 39.0799 28.5588 39.0799C28.503 39.0799 28.456 39.0765 28.4181 39.0698C28.3823 39.0653 28.3533 39.0597 28.3309 39.0529C28.3086 39.0439 28.293 39.0327 28.284 39.0192C28.2751 39.0058 28.2706 38.9901 28.2706 38.9721V34.9379C28.2706 34.8503 28.293 34.7897 28.3376 34.756C28.3846 34.7201 28.4337 34.7022 28.4851 34.7022H29.4066C29.5161 34.7022 29.6065 34.7055 29.678 34.7123C29.7517 34.7168 29.8176 34.7224 29.8757 34.7291C30.0433 34.7583 30.1907 34.8043 30.3181 34.8672C30.4476 34.93 30.556 35.0097 30.6431 35.1063C30.7302 35.2028 30.795 35.3139 30.8374 35.4396C30.8821 35.5631 30.9045 35.7001 30.9045 35.8505C30.9045 35.9964 30.8844 36.1277 30.8442 36.2445C30.8062 36.359 30.7503 36.4611 30.6766 36.5509C30.6029 36.6385 30.5146 36.7148 30.4119 36.7799C30.3091 36.845 30.1941 36.9 30.0667 36.9449C30.1382 36.9763 30.203 37.0167 30.2611 37.0661C30.3192 37.1133 30.3728 37.1705 30.4219 37.2379C30.4733 37.3052 30.5213 37.3827 30.566 37.4702C30.6107 37.5578 30.6554 37.6565 30.7001 37.7666L31.0888 38.7263C31.12 38.8071 31.1402 38.8643 31.1491 38.898C31.158 38.9294 31.1625 38.9541 31.1625 38.9721ZM30.2946 35.9111C30.2946 35.7405 30.2566 35.5968 30.1807 35.48C30.1047 35.3611 29.9774 35.2758 29.7987 35.2241C29.7428 35.2084 29.6791 35.1972 29.6077 35.1904C29.5384 35.1837 29.4468 35.1803 29.3329 35.1803H28.847V36.6486H29.4099C29.5619 36.6486 29.6925 36.6306 29.802 36.5947C29.9137 36.5565 30.0064 36.5049 30.0801 36.4398C30.1539 36.3724 30.2075 36.2938 30.241 36.2041C30.2767 36.1143 30.2946 36.0166 30.2946 35.9111Z" fill="#8B8B8B"/>
<path d="M39.861 37.8373C39.861 38.0416 39.823 38.2234 39.7471 38.3828C39.6734 38.5422 39.5695 38.678 39.4354 38.7903C39.3036 38.9003 39.1473 38.9833 38.9663 39.0394C38.7876 39.0956 38.5944 39.1236 38.3866 39.1236C38.2414 39.1236 38.1062 39.1113 37.9811 39.0866C37.8583 39.0619 37.7477 39.0316 37.6494 38.9957C37.5533 38.9598 37.4718 38.9227 37.4048 38.8845C37.34 38.8464 37.2942 38.8138 37.2674 38.7869C37.2428 38.76 37.2238 38.7263 37.2104 38.6859C37.1992 38.6432 37.1937 38.5871 37.1937 38.5175C37.1937 38.4681 37.1959 38.4277 37.2004 38.3963C37.2048 38.3626 37.2115 38.3357 37.2205 38.3154C37.2294 38.2952 37.2406 38.2818 37.254 38.275C37.2674 38.2661 37.283 38.2616 37.3009 38.2616C37.3322 38.2616 37.3757 38.2806 37.4316 38.3188C37.4897 38.357 37.5634 38.3985 37.6527 38.4434C37.7421 38.4883 37.8493 38.531 37.9744 38.5714C38.1018 38.6095 38.2481 38.6286 38.4134 38.6286C38.5385 38.6286 38.6524 38.6118 38.7552 38.5781C38.8602 38.5444 38.9496 38.4973 39.0233 38.4367C39.0992 38.3738 39.1573 38.2975 39.1975 38.2077C39.2377 38.1179 39.2578 38.0157 39.2578 37.9012C39.2578 37.7778 39.2299 37.6723 39.1741 37.5847C39.1182 37.4972 39.0445 37.4208 38.9529 37.3557C38.8613 37.2884 38.7563 37.2278 38.6379 37.1739C38.5218 37.1178 38.4022 37.0616 38.2794 37.0055C38.1565 36.9471 38.037 36.8832 37.9208 36.8136C37.8047 36.744 37.7008 36.662 37.6092 36.5677C37.5176 36.4734 37.4427 36.3634 37.3847 36.2377C37.3288 36.1098 37.3009 35.9571 37.3009 35.7798C37.3009 35.5979 37.3333 35.4363 37.3981 35.2948C37.4651 35.1512 37.5567 35.0311 37.6728 34.9345C37.7912 34.838 37.9309 34.765 38.0917 34.7156C38.2548 34.664 38.4302 34.6382 38.6178 34.6382C38.7139 34.6382 38.8099 34.6472 38.906 34.6651C39.0043 34.6808 39.0959 34.7033 39.1808 34.7325C39.2679 34.7594 39.345 34.7908 39.412 34.8268C39.479 34.8604 39.5226 34.8885 39.5427 34.9109C39.565 34.9312 39.5795 34.948 39.5862 34.9615C39.5929 34.9727 39.5985 34.9884 39.603 35.0086C39.6075 35.0266 39.6108 35.049 39.613 35.076C39.6153 35.1029 39.6164 35.1377 39.6164 35.1803C39.6164 35.2208 39.6142 35.2567 39.6097 35.2881C39.6075 35.3195 39.603 35.3465 39.5963 35.3689C39.5896 35.3891 39.5795 35.4048 39.5661 35.4161C39.555 35.425 39.5416 35.4295 39.5259 35.4295C39.5014 35.4295 39.4623 35.4138 39.4086 35.3824C39.3573 35.351 39.2936 35.3162 39.2176 35.278C39.1417 35.2376 39.0512 35.2017 38.9462 35.1702C38.8434 35.1366 38.7273 35.1197 38.5977 35.1197C38.4771 35.1197 38.3721 35.1366 38.2827 35.1702C38.1934 35.2017 38.1196 35.2443 38.0616 35.2982C38.0035 35.3521 37.9599 35.4161 37.9309 35.4902C37.9018 35.5642 37.8873 35.6428 37.8873 35.7259C37.8873 35.8471 37.9152 35.9515 37.9711 36.039C38.0269 36.1266 38.1007 36.2041 38.1922 36.2714C38.2861 36.3387 38.3922 36.4005 38.5106 36.4566C38.629 36.5127 38.7496 36.57 38.8725 36.6284C38.9954 36.6845 39.116 36.7473 39.2344 36.8169C39.3528 36.8843 39.4578 36.9651 39.5494 37.0594C39.6432 37.1514 39.718 37.2614 39.7739 37.3894C39.832 37.5151 39.861 37.6644 39.861 37.8373Z" fill="#8B8B8B"/>
<path d="M43.9958 37.3658V38.9721C43.9958 38.9901 43.9914 39.0058 43.9824 39.0192C43.9735 39.0327 43.9578 39.0439 43.9355 39.0529C43.9132 39.0597 43.883 39.0653 43.845 39.0698C43.8071 39.0765 43.7613 39.0799 43.7076 39.0799C43.6518 39.0799 43.6049 39.0765 43.5669 39.0698C43.5312 39.0653 43.501 39.0597 43.4764 39.0529C43.4541 39.0439 43.4384 39.0327 43.4295 39.0192C43.4206 39.0058 43.4161 38.9901 43.4161 38.9721V37.3658L42.1897 34.9076C42.1651 34.8559 42.1495 34.8155 42.1427 34.7864C42.1383 34.7572 42.1439 34.7347 42.1595 34.719C42.1774 34.7033 42.2075 34.6932 42.25 34.6887C42.2947 34.6842 42.3539 34.682 42.4276 34.682C42.4946 34.682 42.5482 34.6842 42.5884 34.6887C42.6309 34.6932 42.6644 34.6999 42.689 34.7089C42.7135 34.7156 42.7314 34.7269 42.7426 34.7426C42.756 34.756 42.7683 34.774 42.7794 34.7965L43.3792 36.0491C43.4351 36.1681 43.4909 36.2927 43.5468 36.4229C43.6026 36.5531 43.6596 36.6845 43.7177 36.8169H43.7244C43.7758 36.689 43.8283 36.5621 43.8819 36.4364C43.9377 36.3084 43.9936 36.1827 44.0494 36.0593L44.6526 34.7998C44.6593 34.7774 44.6682 34.7583 44.6794 34.7426C44.6928 34.7269 44.7096 34.7156 44.7297 34.7089C44.752 34.6999 44.7822 34.6932 44.8202 34.6887C44.8581 34.6842 44.9062 34.682 44.9642 34.682C45.0447 34.682 45.1072 34.6853 45.1519 34.6921C45.1988 34.6966 45.2312 34.7067 45.2491 34.7224C45.2669 34.7381 45.2725 34.7605 45.2658 34.7897C45.2614 34.8189 45.2468 34.8582 45.2223 34.9076L43.9958 37.3658Z" fill="#8B8B8B"/>
<path d="M50.2216 37.8373C50.2216 38.0416 50.1836 38.2234 50.1077 38.3828C50.034 38.5422 49.9301 38.678 49.796 38.7903C49.6642 38.9003 49.5079 38.9833 49.3269 39.0394C49.1482 39.0956 48.955 39.1236 48.7472 39.1236C48.602 39.1236 48.4668 39.1113 48.3417 39.0866C48.2189 39.0619 48.1083 39.0316 48.01 38.9957C47.9139 38.9598 47.8324 38.9227 47.7654 38.8845C47.7006 38.8464 47.6548 38.8138 47.628 38.7869C47.6034 38.76 47.5844 38.7263 47.571 38.6859C47.5598 38.6432 47.5543 38.5871 47.5543 38.5175C47.5543 38.4681 47.5565 38.4277 47.561 38.3963C47.5654 38.3626 47.5721 38.3357 47.5811 38.3154C47.59 38.2952 47.6012 38.2818 47.6146 38.275C47.628 38.2661 47.6436 38.2616 47.6615 38.2616C47.6928 38.2616 47.7363 38.2806 47.7922 38.3188C47.8503 38.357 47.924 38.3985 48.0133 38.4434C48.1027 38.4883 48.2099 38.531 48.335 38.5714C48.4624 38.6095 48.6087 38.6286 48.774 38.6286C48.8991 38.6286 49.013 38.6118 49.1158 38.5781C49.2208 38.5444 49.3102 38.4973 49.3839 38.4367C49.4598 38.3738 49.5179 38.2975 49.5581 38.2077C49.5983 38.1179 49.6184 38.0157 49.6184 37.9012C49.6184 37.7778 49.5905 37.6723 49.5347 37.5847C49.4788 37.4972 49.4051 37.4208 49.3135 37.3557C49.2219 37.2884 49.1169 37.2278 48.9985 37.1739C48.8824 37.1178 48.7628 37.0616 48.64 37.0055C48.5171 36.9471 48.3976 36.8832 48.2814 36.8136C48.1653 36.744 48.0614 36.662 47.9698 36.5677C47.8782 36.4734 47.8033 36.3634 47.7453 36.2377C47.6894 36.1098 47.6615 35.9571 47.6615 35.7798C47.6615 35.5979 47.6939 35.4363 47.7587 35.2948C47.8257 35.1512 47.9173 35.0311 48.0334 34.9345C48.1518 34.838 48.2915 34.765 48.4523 34.7156C48.6154 34.664 48.7908 34.6382 48.9784 34.6382C49.0745 34.6382 49.1705 34.6472 49.2666 34.6651C49.3649 34.6808 49.4565 34.7033 49.5414 34.7325C49.6285 34.7594 49.7056 34.7908 49.7726 34.8268C49.8396 34.8604 49.8832 34.8885 49.9033 34.9109C49.9256 34.9312 49.9401 34.948 49.9468 34.9615C49.9535 34.9727 49.9591 34.9884 49.9636 35.0086C49.9681 35.0266 49.9714 35.049 49.9736 35.076C49.9759 35.1029 49.977 35.1377 49.977 35.1803C49.977 35.2208 49.9748 35.2567 49.9703 35.2881C49.9681 35.3195 49.9636 35.3465 49.9569 35.3689C49.9502 35.3891 49.9401 35.4048 49.9267 35.4161C49.9156 35.425 49.9022 35.4295 49.8865 35.4295C49.8619 35.4295 49.8229 35.4138 49.7692 35.3824C49.7179 35.351 49.6542 35.3162 49.5782 35.278C49.5023 35.2376 49.4118 35.2017 49.3068 35.1702C49.204 35.1366 49.0879 35.1197 48.9583 35.1197C48.8377 35.1197 48.7327 35.1366 48.6433 35.1702C48.554 35.2017 48.4802 35.2443 48.4222 35.2982C48.3641 35.3521 48.3205 35.4161 48.2915 35.4902C48.2624 35.5642 48.2479 35.6428 48.2479 35.7259C48.2479 35.8471 48.2758 35.9515 48.3317 36.039C48.3875 36.1266 48.4613 36.2041 48.5528 36.2714C48.6467 36.3387 48.7528 36.4005 48.8712 36.4566C48.9896 36.5127 49.1102 36.57 49.2331 36.6284C49.356 36.6845 49.4766 36.7473 49.595 36.8169C49.7134 36.8843 49.8184 36.9651 49.91 37.0594C50.0038 37.1514 50.0786 37.2614 50.1345 37.3894C50.1926 37.5151 50.2216 37.6644 50.2216 37.8373Z" fill="#8B8B8B"/>
<path d="M55.7102 34.9514C55.7102 34.994 55.708 35.0311 55.7035 35.0625C55.699 35.0939 55.6912 35.1197 55.68 35.1399C55.6711 35.1579 55.6588 35.1714 55.6432 35.1803C55.6298 35.1893 55.6141 35.1938 55.5963 35.1938H54.3765V38.9721C54.3765 38.9901 54.3721 39.0058 54.3631 39.0192C54.3542 39.0327 54.3386 39.0439 54.3162 39.0529C54.2939 39.0597 54.2637 39.0653 54.2257 39.0698C54.19 39.0765 54.1442 39.0799 54.0883 39.0799C54.0347 39.0799 53.9889 39.0765 53.951 39.0698C53.913 39.0653 53.8828 39.0597 53.8605 39.0529C53.8381 39.0439 53.8225 39.0327 53.8136 39.0192C53.8046 39.0058 53.8002 38.9901 53.8002 38.9721V35.1938H52.5804C52.5625 35.1938 52.5458 35.1893 52.5302 35.1803C52.5168 35.1714 52.5056 35.1579 52.4966 35.1399C52.4877 35.1197 52.4799 35.0939 52.4732 35.0625C52.4687 35.0311 52.4665 34.994 52.4665 34.9514C52.4665 34.9087 52.4687 34.8717 52.4732 34.8402C52.4799 34.8066 52.4877 34.7796 52.4966 34.7594C52.5056 34.7392 52.5168 34.7246 52.5302 34.7156C52.5458 34.7067 52.5625 34.7022 52.5804 34.7022H55.5963C55.6141 34.7022 55.6298 34.7067 55.6432 34.7156C55.6588 34.7246 55.6711 34.7392 55.68 34.7594C55.6912 34.7796 55.699 34.8066 55.7035 34.8402C55.708 34.8717 55.7102 34.9087 55.7102 34.9514Z" fill="#8B8B8B"/>
<path d="M60.7397 38.8206C60.7397 38.861 60.7375 38.8969 60.733 38.9283C60.7285 38.9575 60.7207 38.9822 60.7096 39.0024C60.6984 39.0226 60.685 39.0372 60.6693 39.0462C60.6559 39.0552 60.6403 39.0597 60.6224 39.0597H58.5415C58.4901 39.0597 58.441 39.0428 58.3941 39.0091C58.3494 38.9732 58.327 38.9115 58.327 38.8239V34.9379C58.327 34.8503 58.3494 34.7897 58.3941 34.756C58.441 34.7201 58.4901 34.7022 58.5415 34.7022H60.599C60.6168 34.7022 60.6325 34.7067 60.6459 34.7156C60.6615 34.7246 60.6738 34.7392 60.6827 34.7594C60.6917 34.7796 60.6984 34.8054 60.7029 34.8369C60.7096 34.866 60.7129 34.9031 60.7129 34.948C60.7129 34.9884 60.7096 35.0243 60.7029 35.0557C60.6984 35.0849 60.6917 35.1096 60.6827 35.1298C60.6738 35.1478 60.6615 35.1613 60.6459 35.1702C60.6325 35.1792 60.6168 35.1837 60.599 35.1837H58.9034V36.5509H60.3577C60.3756 36.5509 60.3912 36.5565 60.4046 36.5677C60.4203 36.5767 60.4325 36.5902 60.4415 36.6081C60.4527 36.6261 60.4605 36.6508 60.4649 36.6822C60.4694 36.7137 60.4716 36.7507 60.4716 36.7934C60.4716 36.8338 60.4694 36.8686 60.4649 36.8977C60.4605 36.9269 60.4527 36.9505 60.4415 36.9685C60.4325 36.9864 60.4203 36.9999 60.4046 37.0089C60.3912 37.0156 60.3756 37.019 60.3577 37.019H58.9034V38.5781H60.6224C60.6403 38.5781 60.6559 38.5826 60.6693 38.5916C60.685 38.6006 60.6984 38.6152 60.7096 38.6354C60.7207 38.6533 60.7285 38.678 60.733 38.7094C60.7375 38.7386 60.7397 38.7757 60.7397 38.8206Z" fill="#8B8B8B"/>
<path d="M68.383 38.9721C68.383 38.9901 68.3785 39.0058 68.3696 39.0192C68.3606 39.0327 68.345 39.0439 68.3226 39.0529C68.3003 39.0597 68.2713 39.0653 68.2355 39.0698C68.202 39.0765 68.1573 39.0799 68.1015 39.0799C68.0501 39.0799 68.0054 39.0765 67.9674 39.0698C67.9317 39.0653 67.9027 39.0597 67.8803 39.0529C67.8602 39.0439 67.8457 39.0327 67.8368 39.0192C67.8278 39.0058 67.8234 38.9901 67.8234 38.9721V35.177H67.8167L66.2719 38.9889C66.2652 39.0047 66.2551 39.0181 66.2417 39.0293C66.2305 39.0406 66.2127 39.0507 66.1881 39.0597C66.1657 39.0664 66.1378 39.0709 66.1043 39.0731C66.073 39.0776 66.0351 39.0799 65.9904 39.0799C65.9435 39.0799 65.9033 39.0776 65.8698 39.0731C65.8362 39.0686 65.8083 39.063 65.786 39.0563C65.7636 39.0473 65.7458 39.0372 65.7324 39.026C65.7212 39.0148 65.7134 39.0024 65.7089 38.9889L64.2311 35.177H64.2278V38.9721C64.2278 38.9901 64.2233 39.0058 64.2144 39.0192C64.2054 39.0327 64.1898 39.0439 64.1675 39.0529C64.1451 39.0597 64.1161 39.0653 64.0803 39.0698C64.0446 39.0765 63.9988 39.0799 63.943 39.0799C63.8893 39.0799 63.8447 39.0765 63.8089 39.0698C63.7732 39.0653 63.7441 39.0597 63.7218 39.0529C63.7017 39.0439 63.6872 39.0327 63.6782 39.0192C63.6715 39.0058 63.6682 38.9901 63.6682 38.9721V34.9648C63.6682 34.8705 63.6928 34.8032 63.7419 34.7628C63.791 34.7224 63.8458 34.7022 63.9061 34.7022H64.2546C64.3261 34.7022 64.3886 34.7089 64.4422 34.7224C64.4959 34.7358 64.5428 34.7572 64.583 34.7864C64.6232 34.8155 64.6567 34.8526 64.6835 34.8975C64.7103 34.9424 64.7338 34.9951 64.7539 35.0557L66.0105 38.2111H66.0272L67.3341 35.0659C67.3587 34.9985 67.3855 34.9413 67.4145 34.8941C67.4436 34.847 67.4749 34.8099 67.5084 34.783C67.5441 34.7538 67.5832 34.7336 67.6256 34.7224C67.6681 34.7089 67.7172 34.7022 67.7731 34.7022H68.1383C68.1719 34.7022 68.2031 34.7078 68.2322 34.719C68.2634 34.728 68.2891 34.7437 68.3092 34.7661C68.3316 34.7864 68.3495 34.8133 68.3629 34.847C68.3763 34.8784 68.383 34.9177 68.383 34.9648V38.9721Z" fill="#8B8B8B"/>
</g>
<defs>
<clipPath id="clip0_821_121">
<rect width="70" height="40" fill="white"/>
</clipPath>
</defs>
</svg>
